<svg xmlns="http://www.w3.org/2000/svg" viewBox="0 0 1000 1000"><title>Propuesta 2 logo 2 SVG</title><g id="Capa_4" data-name="Capa 4"><polygon points="665.66 589.62 571 589.62 452.67 384.67 429 343.67 287.01 589.62 192.34 589.62 500 56.75 547.33 138.73 476.33 261.69 500 302.68 665.66 589.62"/><polygon points="334.39 589.57 429.05 425.61 523.72 589.57 334.39 589.57"/><polygon points="594.66 220.71 571 179.72 523.66 261.69 712.99 589.62 807.65 589.62 594.66 220.71"/><path d="M188.57,766.69H122.31L112.06,799.2h-45l63-175h50.51l63,175H198.82Zm-10.25-32.5-23-72.77-23,72.77Z"/><path d="M376.36,672.42,327.1,799.2H287.84L238.58,672.42h43.26l25.75,81,25.76-81Z"/><path d="M496.13,720.43V799.2H455.62V787.45c-6.75,9.75-21.75,15-34.75,15-17,0-43.26-6.5-43.26-37.26,0-42,54.51-42,63-42h15v-.5c0-12-6-20.5-20.75-20.5a39.71,39.71,0,0,0-24,8l-26.5-18c13.75-14.51,32.76-22.76,57-22.76C481.88,669.42,496.13,690.18,496.13,720.43Zm-40.51,23h-3.25c-20.25,0-33.75,3.75-33.75,16.5,0,9.25,7.5,12.75,16.25,12.75s17.25-4.25,20.75-9Z"/><path d="M645.4,719.93V799.2H604.65V730.93c0-14.5-9-21.75-20.26-21.75-11.75,0-20.25,7.75-20.25,21.75V799.2H523.63V672.42h40.51v11.76c7.25-8.26,18.25-14.76,34.75-14.76C630.4,669.42,645.4,694.43,645.4,719.93Z"/><path d="M756.17,751.19l35,21c-11.51,18.26-32.51,30.26-57.76,30.26-39.51,0-68-29-68-66.51,0-37.76,28.51-66.52,68-66.52,25.25,0,46.25,11.76,57.76,30.26l-35,21a26.52,26.52,0,0,0-22.75-12c-16.26,0-27,12.5-27,27.26s10.75,27,27,27A26.91,26.91,0,0,0,756.17,751.19Z"/><path d="M928.45,748.19H836.93c4.25,14.75,16.26,21.5,31.76,21.5,13,0,22-6.25,26-11l28.51,17c-10.25,15.76-29.76,26.76-54.51,26.76-42.76,0-71.26-27-71.26-66.51,0-37.51,29.25-66.52,65.51-66.52C900.44,669.42,933.45,694.93,928.45,748.19Zm-36.76-24.51c-3-14.75-13.5-21.5-27.5-21.5-12.75,0-23.51,7.5-27.26,21.5Z"/><path d="M248.73,843.07H228.14v70.86H216.5V843.07H195.91V832.48h52.82Z"/><path d="M307.49,889H260.6c1.63,9.66,8.84,16.29,20.36,16.29,6.4,0,12.22-2.44,15.48-6.63l8.72,5.58c-5.23,7.1-13.84,11.17-24.2,11.17-19.54,0-31.64-14-31.64-31s12.56-31,29.9-31C295.27,853.54,310.28,867,307.49,889ZM296.79,880c-1.4-10-7.57-16.4-17.57-16.4s-17,6.63-18.62,16.4Z"/><path d="M364,895.89l9.07,4.89a30.2,30.2,0,0,1-26.17,14.66,31,31,0,1,1,26.17-47.35l-9.07,5a19.55,19.55,0,0,0-17.1-9.54c-11.64,0-20.13,8.84-20.13,20.94s8.49,20.83,20.13,20.83A19.45,19.45,0,0,0,364,895.89Z"/><path d="M434.55,877v36.89h-10.7V880.07c0-8.26-3.5-16.52-14.55-16.52s-15.71,9.66-15.71,16.52v33.86H383V832.48h10.58V863.2a21,21,0,0,1,18.27-9.66C425.13,853.54,434.55,864.6,434.55,877Z"/><path d="M501.1,877v36.89H490.52V880.07c0-8.26-3.49-16.52-14.55-16.52s-15.7,9.66-15.7,16.52v33.86H449.68v-59h10.59v8.26a21,21,0,0,1,18.26-9.66C491.8,853.54,501.1,864.6,501.1,877Z"/><path d="M574.64,884.49a30.95,30.95,0,1,1-30.95-31A30.57,30.57,0,0,1,574.64,884.49Zm-10.82,0c0-12.1-8.49-20.94-20.13-20.94s-20,8.84-20,20.94,8.38,20.83,20,20.83S563.82,896.48,563.82,884.49Z"/><path d="M596.87,832.48v81.45H586.28V832.48Z"/><path d="M670.4,884.49a30.95,30.95,0,1,1-30.95-31A30.57,30.57,0,0,1,670.4,884.49Zm-10.82,0c0-12.1-8.5-20.94-20.13-20.94s-20,8.84-20,20.94,8.37,20.83,20,20.83S659.58,896.48,659.58,884.49Z"/><path d="M738.7,854.94v52.82c0,16.76-9,29.67-30.25,29.67-11.64,0-22-4.65-26.76-11.87l9.07-5.35c2.21,3.26,7.91,7.21,17.69,7.21,14.08,0,19.54-9,19.54-20.71v-4.53c-4,5.7-10.35,10.12-20,10.12-17.33,0-29.43-14.78-29.43-29.44s12.1-29.32,29.43-29.32c9.66,0,16.06,4.42,20,10v-8.61ZM728,882.86c0-11.05-7.68-19.31-19-19.31-11,0-19.55,8.26-19.55,19.31S698,902.29,709,902.29C720.31,902.29,728,894,728,882.86Z"/><path d="M806.42,854.94l-32.23,81.44h-11.4l10.47-25.48-24.67-56h11.75l18.15,42.58,16.18-42.58Z"/></g></svg>